<?xml version="1.0" encoding="UTF-8" standalone="no"?>
<!-- Created with Inkscape (http://www.inkscape.org/) -->

<svg
   xmlns:dc="http://purl.org/dc/elements/1.1/"
   xmlns:cc="http://creativecommons.org/ns#"
   xmlns:rdf="http://www.w3.org/1999/02/22-rdf-syntax-ns#"
   xmlns:svg="http://www.w3.org/2000/svg"
   xmlns="http://www.w3.org/2000/svg"
   xmlns:sodipodi="http://sodipodi.sourceforge.net/DTD/sodipodi-0.dtd"
   xmlns:inkscape="http://www.inkscape.org/namespaces/inkscape"
   width="300"
   height="300"
   viewBox="0 0 300 300"
   id="svg3494"
   version="1.1"
   inkscape:version="0.48.5 r10040"
   sodipodi:docname="pirate-captain.svg">
  <defs
     id="defs3496">
    <clipPath
       clipPathUnits="userSpaceOnUse"
       id="clipPath3523">
      <path
         d="m 401.18473,691.63404 a 241.42857,177.14285 0 1 1 0.66903,-0.10101"
         sodipodi:open="true"
         sodipodi:end="7.6496175"
         sodipodi:start="1.3692614"
         sodipodi:ry="177.14285"
         sodipodi:rx="241.42857"
         sodipodi:cy="518.07648"
         sodipodi:cx="352.85715"
         sodipodi:type="arc"
         id="path3525"
         style="fill:#ac9d93;fill-opacity:1;stroke:none" />
    </clipPath>
    <clipPath
       clipPathUnits="userSpaceOnUse"
       id="clipPath3762">
      <rect
         style="fill:#ff0000;fill-opacity:1;stroke:none"
         id="rect3764"
         width="148"
         height="100.5"
         x="-48"
         y="485.86218" />
    </clipPath>
  </defs>
  <sodipodi:namedview
     id="base"
     pagecolor="#ffffff"
     bordercolor="#666666"
     borderopacity="1.0"
     inkscape:pageopacity="0.0"
     inkscape:pageshadow="2"
     inkscape:zoom="1.4142136"
     inkscape:cx="45.07697"
     inkscape:cy="148.00173"
     inkscape:document-units="px"
     inkscape:current-layer="layer1"
     showgrid="false"
     inkscape:window-width="1279"
     inkscape:window-height="1373"
     inkscape:window-x="1279"
     inkscape:window-y="27"
     inkscape:window-maximized="0"
     units="px"
     fit-margin-top="0"
     fit-margin-left="0"
     fit-margin-right="0"
     fit-margin-bottom="0"
     inkscape:showpageshadow="false" />
  <metadata
     id="metadata3499">
    <rdf:RDF>
      <cc:Work
         rdf:about="">
        <dc:format>image/svg+xml</dc:format>
        <dc:type
           rdf:resource="http://purl.org/dc/dcmitype/StillImage" />
        <dc:title />
        <cc:license
           rdf:resource="http://creativecommons.org/publicdomain/zero/1.0/" />
      </cc:Work>
      <cc:License
         rdf:about="http://creativecommons.org/publicdomain/zero/1.0/">
        <cc:permits
           rdf:resource="http://creativecommons.org/ns#Reproduction" />
        <cc:permits
           rdf:resource="http://creativecommons.org/ns#Distribution" />
        <cc:permits
           rdf:resource="http://creativecommons.org/ns#DerivativeWorks" />
      </cc:License>
    </rdf:RDF>
  </metadata>
  <g
     inkscape:label="Camada 1"
     inkscape:groupmode="layer"
     id="layer1"
     transform="translate(-234.80833,-321.82378)">
    <path
       d="m -476.74461,532.7338 c -14.14973,3.44396 -27.9639,-7.42917 -30.85482,-24.28581 -2.89091,-16.85664 6.23617,-33.31352 20.38591,-36.75748 14.14973,-3.44395 27.9639,7.42918 30.85482,24.28582 2.88513,16.82292 -6.20023,33.25506 -20.31344,36.73971"
       sodipodi:open="true"
       sodipodi:end="7.6496175"
       sodipodi:start="1.3692614"
       sodipodi:ry="31.152149"
       sodipodi:rx="26.149616"
       sodipodi:cy="502.21216"
       sodipodi:cx="-481.97906"
       sodipodi:type="arc"
       id="path3704"
       style="fill:#6c5353;fill-opacity:1;stroke:none"
       transform="scale(-1,1)" />
    <path
       style="fill:#c8b7b7;fill-opacity:1;stroke:none"
       id="path3706"
       sodipodi:type="arc"
       sodipodi:cx="-478.6319"
       sodipodi:cy="502.21216"
       sodipodi:rx="17.363344"
       sodipodi:ry="23.420959"
       sodipodi:start="1.3692614"
       sodipodi:end="7.6496175"
       sodipodi:open="true"
       d="m -475.15622,525.15909 c -9.39542,2.58925 -18.56803,-5.58544 -20.4876,-18.25868 -1.91956,-12.67324 4.14082,-25.04593 13.53624,-27.63518 9.39543,-2.58925 18.56804,5.58543 20.4876,18.25867 1.91573,12.6479 -4.11695,25.00199 -13.48812,27.62183"
       transform="scale(-1,1)" />
    <path
       style="fill:#6c5353;fill-opacity:1;stroke:none"
       id="path3700"
       sodipodi:type="arc"
       sodipodi:cx="260.95795"
       sodipodi:cy="519.03882"
       sodipodi:rx="26.149616"
       sodipodi:ry="31.152149"
       sodipodi:start="1.3692614"
       sodipodi:end="7.6496175"
       sodipodi:open="true"
       d="m 266.19241,549.56046 c -14.14974,3.44396 -27.96391,-7.42917 -30.85482,-24.28581 -2.89092,-16.85664 6.23616,-33.31352 20.3859,-36.75748 14.14973,-3.44395 27.96391,7.42918 30.85482,24.28582 2.88513,16.82292 -6.20022,33.25506 -20.31344,36.73971" />
    <path
       d="m 267.78079,541.98575 c -9.39542,2.58925 -18.56803,-5.58544 -20.48759,-18.25868 -1.91957,-12.67324 4.14081,-25.04593 13.53623,-27.63518 9.39543,-2.58925 18.56804,5.58543 20.4876,18.25867 1.91573,12.6479 -4.11694,25.00199 -13.48812,27.62183"
       sodipodi:open="true"
       sodipodi:end="7.6496175"
       sodipodi:start="1.3692614"
       sodipodi:ry="23.420959"
       sodipodi:rx="17.363344"
       sodipodi:cy="519.03882"
       sodipodi:cx="264.30511"
       sodipodi:type="arc"
       id="path3702"
       style="fill:#c8b7b7;fill-opacity:1;stroke:none" />
    <path
       style="fill:#6c5353;fill-opacity:1;stroke:none"
       id="path3502"
       sodipodi:type="arc"
       sodipodi:cx="378.45258"
       sodipodi:cy="519.59106"
       sodipodi:rx="109.7959"
       sodipodi:ry="80.560303"
       sodipodi:start="1.3692614"
       sodipodi:end="7.6496175"
       sodipodi:open="true"
       d="m 400.4308,598.52087 c -59.41131,8.90616 -117.41367,-19.21205 -129.55191,-62.80377 -12.13823,-43.59173 26.18416,-86.14968 85.59546,-95.05584 59.41131,-8.90616 117.41367,19.21205 129.55191,62.80377 12.11396,43.50455 -26.03323,85.9985 -85.2912,95.0099" />
    <path
       d="m 398.61351,598.6278 c -54.49883,8.32211 -107.70522,-17.95215 -118.83979,-58.6852 -11.13458,-40.73305 24.01909,-80.50012 78.51792,-88.82223 54.49883,-8.32211 107.70522,17.95215 118.8398,58.6852 11.1123,40.65159 -23.88065,80.35886 -78.23883,88.7793"
       sodipodi:open="true"
       sodipodi:end="7.6496175"
       sodipodi:start="1.3692614"
       sodipodi:ry="75.27729"
       sodipodi:rx="100.71733"
       sodipodi:cy="524.87408"
       sodipodi:cx="378.45258"
       sodipodi:type="arc"
       id="path3698"
       style="fill:#c8b7b7;fill-opacity:1;stroke:none" />
    <path
       style="fill:#ffffff;fill-opacity:1;stroke:none"
       id="path3504"
       sodipodi:type="arc"
       sodipodi:cx="337.88321"
       sodipodi:cy="522.74969"
       sodipodi:rx="32.616909"
       sodipodi:ry="30.319941"
       sodipodi:start="1.3692614"
       sodipodi:end="7.6496175"
       sodipodi:open="true"
       d="m 344.41225,552.45597 c -17.64923,3.35196 -34.87991,-7.2307 -38.4858,-23.63703 -3.60589,-16.40632 7.77849,-32.42357 25.42772,-35.77552 17.64923,-3.35196 34.87991,7.2307 38.4858,23.63703 3.59867,16.37351 -7.73366,32.36668 -25.33734,35.75823" />
    <path
       inkscape:connector-curvature="0"
       id="path3726"
       d="m 279.99393,506.40336 c 3.41223,-3.9339 12.46016,-10.59842 19.05431,-15.83019 6.59415,-5.23176 11.98935,-9.94107 11.98935,-10.46513 0,-1.39208 -21.99943,33.50472 -17.41873,33.50472 5.65429,0 44.13659,-33.30881 46.96054,-28.97852 3.78703,5.80717 14.29192,18.64379 16.18375,19.0716 0.93749,0.21199 5.91973,-3.35891 9.62105,-7.93534 18.5644,-22.95358 18.82547,-23.21292 23.36745,-23.21292 2.42774,0 8.74318,1.15283 14.03434,2.56184 7.67767,2.04455 -4.21513,15.22225 3.4623,21.82135 5.29099,4.54784 26.19012,-2.7219 27.15834,-2.7219 0.96825,0 12.23346,5.17894 16.82779,-1.1102 4.59434,-6.28913 3.63974,-23.35598 4.17827,-22.06661 22.88131,54.78452 14.18863,9.84394 24.3241,12.07433 10.13545,2.23039 20.26773,-6.59561 21.28522,-6.58734 3.91724,0.0319 -2.69379,-5.42209 -7.42047,-8.25861 -4.49932,-2.70007 -4.54762,-2.93449 -0.60746,-2.94835 6.70059,-0.0236 -28.28196,-5.94624 -52.65448,-8.91461 -56.84704,-6.9235 -96.55789,-8.96407 -123.1352,-6.32736 -13.17933,1.30749 -14.09113,8.79964 -17.29181,11.36993 -2.1656,1.73908 -18.36139,14.83846 -23.89096,22.30158 -6.10319,8.23734 -8.31918,12.83514 -10.13844,19.0847 -4.61744,15.862 -1.81967,24.70309 2.81608,19.10736 l 5.23682,-8.55635 z"
       style="fill:#803300;fill-opacity:1;stroke:none"
       sodipodi:nodetypes="ssssscsssssssscsssssssccs" />
    <g
       id="g3516"
       clip-path="url(#clipPath3523)"
       transform="matrix(0.45477592,0,0,0.45477592,217.98163,283.98237)">
      <path
         style="fill:#241f1c;fill-opacity:1;stroke:none"
         id="path3506"
         sodipodi:type="arc"
         sodipodi:cx="483.64981"
         sodipodi:cy="527.08289"
         sodipodi:rx="71.720833"
         sodipodi:ry="60.609154"
         sodipodi:start="1.3692614"
         sodipodi:end="7.6496175"
         sodipodi:open="true"
         d="m 498.00642,586.46534 c -38.80863,6.70051 -76.69691,-14.45409 -84.62585,-47.25011 -7.92893,-32.79603 17.10401,-64.81429 55.91264,-71.5148 38.80862,-6.70051 76.6969,14.45409 84.62584,47.25011 7.91307,32.73044 -17.00542,64.70056 -55.71389,71.48024" />
      <rect
         transform="matrix(0.5441995,-0.83895584,0.83895584,0.5441995,0,0)"
         y="361.04987"
         x="-212.16252"
         height="274.76151"
         width="38.385796"
         id="rect3512"
         style="fill:#241f1c;fill-opacity:1;stroke:none" />
      <rect
         style="fill:#241f1c;fill-opacity:1;stroke:none"
         id="rect3514"
         width="38.385796"
         height="274.76151"
         x="-731.51447"
         y="-406.1882"
         transform="matrix(-0.5441995,-0.83895584,-0.83895584,0.5441995,0,0)" />
    </g>
    <path
       style="fill:#2b1100;fill-opacity:1;stroke:none"
       id="path3677"
       sodipodi:type="arc"
       sodipodi:cx="349.04764"
       sodipodi:cy="519.97882"
       sodipodi:rx="8.3572941"
       sodipodi:ry="7.3126326"
       sodipodi:start="1.3692614"
       sodipodi:end="7.6496175"
       sodipodi:open="true"
       d="m 350.72055,527.14345 c -4.52219,0.80843 -8.93714,-1.74392 -9.86106,-5.70083 -0.92392,-3.95692 1.99305,-7.82 6.51524,-8.62843 4.52219,-0.80843 8.93713,1.74392 9.86105,5.70084 0.92208,3.949 -1.98156,7.80627 -6.49207,8.62425" />
    <g
       id="g3401"
       transform="matrix(0.35726479,0,0,0.47188943,234.14014,308.59103)"
       style="fill:#550000;fill-opacity:1">
      <path
         style="fill:#550000;fill-opacity:1;stroke:none"
         d="m 634.27036,174.04846 c -44.85709,1.93894 -92.95275,26.6929 -127.64258,65.69531 -24.85421,28.02096 -40.6775,61.02791 -44.48242,92.78906 l 199.51559,16.14052 c 28.57302,-55.5493 213.48483,-187.33915 174.56457,-215.9032 -17.45439,-12.76269 -176.74659,40.18819 -201.95516,41.27831 z"
         id="path3389"
         inkscape:connector-curvature="0"
         sodipodi:nodetypes="cccccc" />
      <path
         inkscape:connector-curvature="0"
         id="path3391"
         d="m 202.07908,174.08139 c 44.85709,1.93894 92.95275,26.6929 127.64258,65.69531 24.85421,28.02096 40.6775,61.02791 44.48242,92.78906 L 133.44999,358.57688 C 104.87696,303.02758 -11.195764,159.43878 27.724498,130.87473 45.178888,118.11205 176.87051,172.99127 202.07908,174.08139 z"
         style="fill:#550000;fill-opacity:1;stroke:none"
         sodipodi:nodetypes="cccccc" />
      <path
         style="fill:#550000;fill-opacity:1;stroke:none"
         d="m 411.3578,66.68384 a 234,241 0 0 0 -46.47461,4.94531 234,241 0 0 0 -185.55274,261.05273 l 465.3711,0 A 234,241 0 0 0 641.21131,258.9397 234,241 0 0 0 411.3578,66.68384 z"
         id="path3387"
         inkscape:connector-curvature="0" />
    </g>
    <g
       style="fill:#800000;fill-opacity:1"
       transform="matrix(0.32792009,0,0,0.43312979,246.77904,316.83249)"
       id="g3491">
      <path
         sodipodi:nodetypes="cccccc"
         inkscape:connector-curvature="0"
         id="path3493"
         d="m 634.27036,174.04846 c -44.85709,1.93894 -92.95275,26.6929 -127.64258,65.69531 -24.85421,28.02096 -40.6775,61.02791 -44.48242,92.78906 l 199.51559,16.14052 c 28.57302,-55.5493 213.48483,-187.33915 174.56457,-215.9032 -17.45439,-12.76269 -176.74659,40.18819 -201.95516,41.27831 z"
         style="fill:#800000;fill-opacity:1;stroke:none" />
      <path
         sodipodi:nodetypes="cccccc"
         style="fill:#800000;fill-opacity:1;stroke:none"
         d="m 202.07908,174.08139 c 44.85709,1.93894 92.95275,26.6929 127.64258,65.69531 24.85421,28.02096 40.6775,61.02791 44.48242,92.78906 L 133.44999,358.57688 C 104.87696,303.02758 -11.195764,159.43878 27.724498,130.87473 45.178888,118.11205 176.87051,172.99127 202.07908,174.08139 z"
         id="path3495"
         inkscape:connector-curvature="0" />
      <path
         inkscape:connector-curvature="0"
         id="path3497"
         d="m 411.3578,66.68384 a 234,241 0 0 0 -46.47461,4.94531 234,241 0 0 0 -185.55274,261.05273 l 465.3711,0 A 234,241 0 0 0 641.21131,258.9397 234,241 0 0 0 411.3578,66.68384 z"
         style="fill:#800000;fill-opacity:1;stroke:none" />
    </g>
    <g
       id="g3884">
      <rect
         style="fill:#e2dbe3;fill-opacity:1;stroke:none"
         id="rect3708"
         width="39.625683"
         height="3.5384738"
         x="510.3999"
         y="-220.77571"
         transform="matrix(0.90572697,0.4238616,0.44407239,-0.89599091,0,0)" />
      <path
         inkscape:connector-curvature="0"
         style="fill:#e2dbe3;fill-opacity:1;stroke:none"
         d="m 400.2673,439.39839 a 9.9588434,9.6771436 0 0 1 -0.58681,-12.40632 9.9588434,9.6771436 0 0 1 13.95142,-1.83706 l 0.0226,0.0167 a 9.9588434,9.6771436 0 0 1 2.07308,2.10823 11.670692,11.28717 4.6264162 0 0 -13.21144,3.74663 11.670692,11.28717 4.6264162 0 0 -2.24891,8.3719 z"
         id="path3710" />
      <path
         style="fill:#e2dbe3;fill-opacity:1;stroke:none"
         d="m 354.13188,418.54521 a 12.007929,13.928028 30.102388 0 0 7.75532,-5.48564 12.007929,13.928028 30.102388 0 0 3.06693,-10.30097 9.9588434,9.6771436 0 0 1 0.90657,12.7362 9.9588434,9.6771436 0 0 1 -11.72882,3.05041 z"
         id="path3712"
         inkscape:connector-curvature="0" />
      <rect
         y="-547.17175"
         x="-179.56085"
         height="3.5384738"
         width="39.625683"
         id="rect3714"
         style="fill:#e2dbe3;fill-opacity:1;stroke:none"
         transform="matrix(-0.90572697,0.4238616,-0.44407239,-0.89599091,0,0)" />
      <path
         id="path3716"
         d="m 369.59222,439.39839 a 9.9588434,9.6771436 0 0 0 0.5868,-12.40632 9.9588434,9.6771436 0 0 0 -13.95141,-1.83706 l -0.0227,0.0167 a 9.9588434,9.6771436 0 0 0 -2.07307,2.10823 11.28717,11.670692 85.373586 0 1 13.21144,3.74663 11.28717,11.670692 85.373586 0 1 2.24892,8.3719 z"
         style="fill:#e2dbe3;fill-opacity:1;stroke:none"
         inkscape:connector-curvature="0" />
      <path
         inkscape:connector-curvature="0"
         id="path3718"
         d="m 415.72764,418.54521 a 13.928028,12.007929 59.897612 0 1 -7.75532,-5.48564 13.928028,12.007929 59.897612 0 1 -3.06693,-10.30097 9.9588434,9.6771436 0 0 0 -0.90656,12.7362 9.9588434,9.6771436 0 0 0 11.72881,3.05041 z"
         style="fill:#e2dbe3;fill-opacity:1;stroke:none" />
      <path
         inkscape:connector-curvature="0"
         id="path3720"
         d="m 384.81422,381.87993 a 18.824433,15.843629 0 0 0 -3.73978,0.32389 18.824433,15.843629 0 0 0 -14.64497,18.70085 18.824433,15.843629 0 0 0 22.20795,12.3407 l 0.0533,-0.007 a 18.824433,15.843629 0 0 0 4.45685,-1.29966 8.763098,3.9609075 0 0 1 -0.33368,0.037 l -0.0231,0.001 a 8.763098,3.9609075 0 0 1 -10.33899,-3.08414 8.763098,3.9609075 0 0 1 6.81752,-4.67469 8.763098,3.9609075 0 0 1 10.34963,3.07793 8.763098,3.9609075 0 0 1 0.0603,0.1795 18.824433,15.843629 0 0 0 3.6262,-12.95754 18.824433,15.843629 0 0 0 -18.49125,-12.63776 z"
         style="fill:#e2dbe3;fill-opacity:1;stroke:none" />
      <path
         d="m 378.31473,404.85054 c -4.21491,0.78963 -8.32986,-1.70335 -9.191,-5.56823 -0.86115,-3.86487 1.85762,-7.63808 6.07253,-8.42771 4.21491,-0.78963 8.32986,1.70335 9.191,5.56822 0.85942,3.85715 -1.84692,7.62469 -6.05095,8.42365"
         sodipodi:open="true"
         sodipodi:end="7.6496175"
         sodipodi:start="1.3692614"
         sodipodi:ry="7.1425309"
         sodipodi:rx="7.7894206"
         sodipodi:cy="397.85257"
         sodipodi:cx="376.75549"
         sodipodi:type="arc"
         id="path3722"
         style="fill:#241c1f;fill-opacity:1;stroke:none" />
      <path
         style="fill:#241c1f;fill-opacity:1;stroke:none"
         id="path3724"
         sodipodi:type="arc"
         sodipodi:cx="393.47034"
         sodipodi:cy="394.99551"
         sodipodi:rx="7.62714"
         sodipodi:ry="8.1814451"
         sodipodi:start="1.3692614"
         sodipodi:end="7.6496175"
         sodipodi:open="true"
         d="m 394.99709,403.01137 c -4.1271,0.90448 -8.15632,-1.95111 -8.99952,-6.37815 -0.8432,-4.42703 1.81892,-8.74908 5.94602,-9.65356 4.12709,-0.90448 8.15632,1.95111 8.99952,6.37815 0.84151,4.41818 -1.80844,8.73373 -5.92489,9.6489" />
    </g>
  </g>
</svg>
