<?xml version="1.0" encoding="UTF-8" standalone="no"?>
<!-- Created with Inkscape (http://www.inkscape.org/) -->

<svg
   xmlns:dc="http://purl.org/dc/elements/1.1/"
   xmlns:cc="http://creativecommons.org/ns#"
   xmlns:rdf="http://www.w3.org/1999/02/22-rdf-syntax-ns#"
   xmlns:svg="http://www.w3.org/2000/svg"
   xmlns="http://www.w3.org/2000/svg"
   xmlns:sodipodi="http://sodipodi.sourceforge.net/DTD/sodipodi-0.dtd"
   xmlns:inkscape="http://www.inkscape.org/namespaces/inkscape"
   id="svg15014"
   sodipodi:docname="aurium-Pirate-Simple.svg"
   viewBox="0 0 300 300"
   sodipodi:version="0.32"
   version="1.1"
   inkscape:version="0.48.5 r10040"
   width="100%"
   height="100%">
  <defs
     id="defs7" />
  <sodipodi:namedview
     id="base"
     bordercolor="#666666"
     inkscape:pageshadow="2"
     inkscape:window-y="27"
     pagecolor="#ffffff"
     inkscape:window-height="1374"
     inkscape:window-maximized="0"
     inkscape:zoom="1.9516147"
     inkscape:window-x="1280"
     showgrid="false"
     borderopacity="1.0"
     inkscape:current-layer="layer1"
     inkscape:cx="88.763287"
     inkscape:cy="22.151694"
     inkscape:window-width="1279"
     inkscape:pageopacity="0.0"
     inkscape:document-units="px"
     inkscape:snap-object-midpoints="true"
     inkscape:snap-nodes="true"
     inkscape:snap-global="false"
     inkscape:snap-bbox="true"
     inkscape:snap-bbox-midpoints="true"
     inkscape:snap-page="false" />
  <g
     id="layer1"
     inkscape:label="Layer 1"
     inkscape:groupmode="layer"
     transform="translate(-0.38536,199.947)">
    <path
       id="path15012"
       style="opacity:0.8;color:#000000;fill:#000000"
       inkscape:connector-curvature="0"
       d="m 150.39057,-142.04948 c -41.41158,0 -74.988547,33.57928 -74.988547,74.990852 0,20.704627 8.369807,39.46165 21.949513,53.039026 6.787534,6.789852 11.169054,49.53241 20.143854,53.332214 8.9748,3.790492 56.87373,3.790492 65.84853,0 8.9748,-3.799804 13.29815,-46.542362 20.08567,-53.332214 13.57971,-13.577376 22.00769,-32.334399 22.00769,-53.039026 0,-41.411572 -33.63513,-74.990852 -75.04671,-74.990852 z m -122.324377,39.82464 c -8.907317,0.21407 -17.261303,5.626409 -20.7269654,14.438317 -4.620961,11.748444 1.176008,25.07219 12.9251514,29.693385 5.706919,2.243117 11.796611,1.924334 17.060026,-0.232689 l 31.787582,12.458145 c -1.773087,-6.824755 -3.027278,-13.826353 -3.027278,-21.190946 0,-5.028399 0.60499,-9.884609 1.45663,-14.673339 l -18.224167,-7.159827 c -2.38273,-5.165677 -6.578105,-9.516957 -12.285955,-11.762396 -2.936529,-1.15414 -5.996383,-1.64278 -8.965024,-1.57065 z m 244.648737,0 c -2.97841,-0.0768 -6.02663,0.41651 -8.98177,1.57065 -5.70087,2.245439 -9.88927,6.540869 -12.28596,11.704224 l -18.21253,7.159827 c 0.85862,4.807345 1.5148,9.68217 1.5148,14.731511 0,7.3739 -1.29142,14.419709 -3.08545,21.249118 l 31.83645,-12.516317 c 5.28203,2.157023 11.30866,2.417634 17.00953,0.174517 11.75077,-4.621195 17.54472,-17.828596 12.93748,-29.577041 -3.46706,-8.81191 -11.82058,-14.266129 -20.73255,-14.496489 z m -152.95316,17.05839 c 11.76008,0 21.30962,9.549538 21.30962,21.309617 0,11.760079 -9.54954,21.309616 -21.30962,21.309616 -11.76007,0 -21.309624,-9.549537 -21.309624,-21.309616 0,-11.760079 9.549554,-21.309617 21.309624,-21.309617 z m 61.24828,0 c 11.76008,0 21.30962,9.549538 21.30962,21.309617 0,11.760079 -9.54954,21.309616 -21.30962,21.309616 -11.76008,0 -21.30961,-9.549537 -21.30961,-21.309616 0,-11.760079 9.54953,-21.309617 21.30961,-21.309617 z M 79.641608,-21.356271 37.315563,-4.70508 C 32.052148,-6.859775 25.962456,-7.122713 20.255537,-4.879596 8.5063936,-0.2584006 2.7094236,13.007172 7.3303856,24.755617 11.951347,36.506388 25.274396,42.242164 37.021445,37.623293 42.729294,35.377849 46.924669,31.084745 49.3074,25.921386 L 95.361116,7.8135644 c -0.7353,-2.896972 -1.51015,-6.154612 -2.21287,-8.5001122 -1.386822,-4.6258492 -3.848667,-8.1580612 -2.445555,-6.7549492 -4.197701,-4.195374 -7.827643,-8.90499 -11.062013,-13.914774 z m 141.479292,0 c -3.25066,5.016764 -6.92015,9.714746 -11.12018,13.914774 1.40776,-1.407765 -1.06339,2.1291 -2.44556,6.7549492 -0.69574,2.3292122 -1.48222,5.5659092 -2.21287,8.4419402 l 46.10026,18.1659936 c 2.39669,5.163359 6.58508,9.458789 12.28595,11.701907 11.75077,4.618871 25.08383,-1.116905 29.71433,-12.867676 4.60723,-11.748445 -1.18671,-25.0140176 -12.93748,-29.635213 -5.70087,-2.243117 -11.72751,-1.980179 -17.00954,0.174516 l -42.37956,-16.651191 z" />
  </g>
  <metadata
     id="metadata6">
    <rdf:RDF>
      <cc:Work>
        <dc:format>image/svg+xml</dc:format>
        <dc:type
           rdf:resource="http://purl.org/dc/dcmitype/StillImage" />
        <cc:license
           rdf:resource="http://creativecommons.org/licenses/publicdomain/" />
        <dc:publisher>
          <cc:Agent
             rdf:about="http://openclipart.org/">
            <dc:title>Openclipart</dc:title>
          </cc:Agent>
        </dc:publisher>
        <dc:title></dc:title>
      </cc:Work>
      <cc:License
         rdf:about="http://creativecommons.org/licenses/publicdomain/">
        <cc:permits
           rdf:resource="http://creativecommons.org/ns#Reproduction" />
        <cc:permits
           rdf:resource="http://creativecommons.org/ns#Distribution" />
        <cc:permits
           rdf:resource="http://creativecommons.org/ns#DerivativeWorks" />
      </cc:License>
    </rdf:RDF>
  </metadata>
</svg>
