<?xml version="1.0" encoding="UTF-8" standalone="no"?>
<!-- Created with Inkscape (http://www.inkscape.org/) -->

<svg
   xmlns:dc="http://purl.org/dc/elements/1.1/"
   xmlns:cc="http://creativecommons.org/ns#"
   xmlns:rdf="http://www.w3.org/1999/02/22-rdf-syntax-ns#"
   xmlns:svg="http://www.w3.org/2000/svg"
   xmlns="http://www.w3.org/2000/svg"
   xmlns:sodipodi="http://sodipodi.sourceforge.net/DTD/sodipodi-0.dtd"
   xmlns:inkscape="http://www.inkscape.org/namespaces/inkscape"
   width="300"
   height="300"
   viewBox="0 0 300 300"
   id="svg3494"
   version="1.1"
   inkscape:version="0.48.5 r10040"
   sodipodi:docname="pirate-mate.svg">
  <defs
     id="defs3496">
    <clipPath
       clipPathUnits="userSpaceOnUse"
       id="clipPath3523">
      <path
         d="m 401.18473,691.63404 a 241.42857,177.14285 0 1 1 0.66903,-0.10101"
         sodipodi:open="true"
         sodipodi:end="7.6496175"
         sodipodi:start="1.3692614"
         sodipodi:ry="177.14285"
         sodipodi:rx="241.42857"
         sodipodi:cy="518.07648"
         sodipodi:cx="352.85715"
         sodipodi:type="arc"
         id="path3525"
         style="fill:#ac9d93;fill-opacity:1;stroke:none" />
    </clipPath>
    <clipPath
       clipPathUnits="userSpaceOnUse"
       id="clipPath3762">
      <rect
         style="fill:#ff0000;fill-opacity:1;stroke:none"
         id="rect3764"
         width="148"
         height="100.5"
         x="-48"
         y="485.86218" />
    </clipPath>
    <clipPath
       clipPathUnits="userSpaceOnUse"
       id="clipPath3762-3">
      <rect
         style="fill:#ff0000;fill-opacity:1;stroke:none"
         id="rect3764-6"
         width="148"
         height="100.5"
         x="-48"
         y="485.86218" />
    </clipPath>
  </defs>
  <sodipodi:namedview
     id="base"
     pagecolor="#ffffff"
     bordercolor="#666666"
     borderopacity="1.0"
     inkscape:pageopacity="0.0"
     inkscape:pageshadow="2"
     inkscape:zoom="1.767767"
     inkscape:cx="223.23128"
     inkscape:cy="104.11987"
     inkscape:document-units="px"
     inkscape:current-layer="g3021"
     showgrid="false"
     inkscape:window-width="1279"
     inkscape:window-height="1373"
     inkscape:window-x="1279"
     inkscape:window-y="27"
     inkscape:window-maximized="0"
     units="px"
     fit-margin-top="0"
     fit-margin-left="0"
     fit-margin-right="0"
     fit-margin-bottom="0"
     inkscape:showpageshadow="false" />
  <metadata
     id="metadata3499">
    <rdf:RDF>
      <cc:Work
         rdf:about="">
        <dc:format>image/svg+xml</dc:format>
        <dc:type
           rdf:resource="http://purl.org/dc/dcmitype/StillImage" />
        <dc:title />
        <cc:license
           rdf:resource="http://creativecommons.org/publicdomain/zero/1.0/" />
      </cc:Work>
      <cc:License
         rdf:about="http://creativecommons.org/publicdomain/zero/1.0/">
        <cc:permits
           rdf:resource="http://creativecommons.org/ns#Reproduction" />
        <cc:permits
           rdf:resource="http://creativecommons.org/ns#Distribution" />
        <cc:permits
           rdf:resource="http://creativecommons.org/ns#DerivativeWorks" />
      </cc:License>
    </rdf:RDF>
  </metadata>
  <g
     inkscape:label="Camada 1"
     inkscape:groupmode="layer"
     id="layer1"
     transform="translate(-234.80833,-321.82378)">
    <path
       d="m -476.74461,532.7338 c -14.14973,3.44396 -27.9639,-7.42917 -30.85482,-24.28581 -2.89091,-16.85664 6.23617,-33.31352 20.38591,-36.75748 14.14973,-3.44395 27.9639,7.42918 30.85482,24.28582 2.88513,16.82292 -6.20023,33.25506 -20.31344,36.73971"
       sodipodi:open="true"
       sodipodi:end="7.6496175"
       sodipodi:start="1.3692614"
       sodipodi:ry="31.152149"
       sodipodi:rx="26.149616"
       sodipodi:cy="502.21216"
       sodipodi:cx="-481.97906"
       sodipodi:type="arc"
       id="path3704"
       style="fill:#6c5353;fill-opacity:1;stroke:none"
       transform="scale(-1,1)" />
    <path
       style="fill:#c8b7b7;fill-opacity:1;stroke:none"
       id="path3706"
       sodipodi:type="arc"
       sodipodi:cx="-478.6319"
       sodipodi:cy="502.21216"
       sodipodi:rx="17.363344"
       sodipodi:ry="23.420959"
       sodipodi:start="1.3692614"
       sodipodi:end="7.6496175"
       sodipodi:open="true"
       d="m -475.15622,525.15909 c -9.39542,2.58925 -18.56803,-5.58544 -20.4876,-18.25868 -1.91956,-12.67324 4.14082,-25.04593 13.53624,-27.63518 9.39543,-2.58925 18.56804,5.58543 20.4876,18.25867 1.91573,12.6479 -4.11695,25.00199 -13.48812,27.62183"
       transform="scale(-1,1)" />
    <path
       style="fill:#6c5353;fill-opacity:1;stroke:none"
       id="path3700"
       sodipodi:type="arc"
       sodipodi:cx="260.95795"
       sodipodi:cy="519.03882"
       sodipodi:rx="26.149616"
       sodipodi:ry="31.152149"
       sodipodi:start="1.3692614"
       sodipodi:end="7.6496175"
       sodipodi:open="true"
       d="m 266.19241,549.56046 c -14.14974,3.44396 -27.96391,-7.42917 -30.85482,-24.28581 -2.89092,-16.85664 6.23616,-33.31352 20.3859,-36.75748 14.14973,-3.44395 27.96391,7.42918 30.85482,24.28582 2.88513,16.82292 -6.20022,33.25506 -20.31344,36.73971" />
    <path
       d="m 267.78079,541.98575 c -9.39542,2.58925 -18.56803,-5.58544 -20.48759,-18.25868 -1.91957,-12.67324 4.14081,-25.04593 13.53623,-27.63518 9.39543,-2.58925 18.56804,5.58543 20.4876,18.25867 1.91573,12.6479 -4.11694,25.00199 -13.48812,27.62183"
       sodipodi:open="true"
       sodipodi:end="7.6496175"
       sodipodi:start="1.3692614"
       sodipodi:ry="23.420959"
       sodipodi:rx="17.363344"
       sodipodi:cy="519.03882"
       sodipodi:cx="264.30511"
       sodipodi:type="arc"
       id="path3702"
       style="fill:#c8b7b7;fill-opacity:1;stroke:none" />
    <path
       style="fill:#6c5353;fill-opacity:1;stroke:none"
       id="path3502"
       sodipodi:type="arc"
       sodipodi:cx="378.45258"
       sodipodi:cy="519.59106"
       sodipodi:rx="109.7959"
       sodipodi:ry="80.560303"
       sodipodi:start="1.3692614"
       sodipodi:end="7.6496175"
       sodipodi:open="true"
       d="m 400.4308,598.52087 c -59.41131,8.90616 -117.41367,-19.21205 -129.55191,-62.80377 -12.13823,-43.59173 26.18416,-86.14968 85.59546,-95.05584 59.41131,-8.90616 117.41367,19.21205 129.55191,62.80377 12.11396,43.50455 -26.03323,85.9985 -85.2912,95.0099" />
    <path
       d="m 398.61351,598.6278 c -54.49883,8.32211 -107.70522,-17.95215 -118.83979,-58.6852 -11.13458,-40.73305 24.01909,-80.50012 78.51792,-88.82223 54.49883,-8.32211 107.70522,17.95215 118.8398,58.6852 11.1123,40.65159 -23.88065,80.35886 -78.23883,88.7793"
       sodipodi:open="true"
       sodipodi:end="7.6496175"
       sodipodi:start="1.3692614"
       sodipodi:ry="75.27729"
       sodipodi:rx="100.71733"
       sodipodi:cy="524.87408"
       sodipodi:cx="378.45258"
       sodipodi:type="arc"
       id="path3698"
       style="fill:#c8b7b7;fill-opacity:1;stroke:none" />
    <path
       style="fill:#ffffff;fill-opacity:1;stroke:none"
       id="path3504"
       sodipodi:type="arc"
       sodipodi:cx="337.88321"
       sodipodi:cy="522.74969"
       sodipodi:rx="32.616909"
       sodipodi:ry="30.319941"
       sodipodi:start="1.3692614"
       sodipodi:end="7.6496175"
       sodipodi:open="true"
       d="m 344.41225,552.45597 c -17.64923,3.35196 -34.87991,-7.2307 -38.4858,-23.63703 -3.60589,-16.40632 7.77849,-32.42357 25.42772,-35.77552 17.64923,-3.35196 34.87991,7.2307 38.4858,23.63703 3.59867,16.37351 -7.73366,32.36668 -25.33734,35.75823" />
    <path
       inkscape:connector-curvature="0"
       id="path3726"
       d="m 279.99393,506.40336 c 3.41223,-3.9339 12.46016,-10.59842 19.05431,-15.83019 6.59415,-5.23176 11.98935,-9.94107 11.98935,-10.46513 0,-1.39208 -21.99943,33.50472 -17.41873,33.50472 5.65429,0 44.13659,-33.30881 46.96054,-28.97852 3.78703,5.80717 14.29192,18.64379 16.18375,19.0716 0.93749,0.21199 5.91973,-3.35891 9.62105,-7.93534 18.5644,-22.95358 18.82547,-23.21292 23.36745,-23.21292 2.42774,0 8.74318,1.15283 14.03434,2.56184 7.67767,2.04455 -4.21513,15.22225 3.4623,21.82135 5.29099,4.54784 26.19012,-2.7219 27.15834,-2.7219 0.96825,0 12.23346,5.17894 16.82779,-1.1102 4.59434,-6.28913 3.63974,-23.35598 4.17827,-22.06661 22.88131,54.78452 14.18863,9.84394 24.3241,12.07433 10.13545,2.23039 20.26773,-6.59561 21.28522,-6.58734 3.91724,0.0319 -2.69379,-5.42209 -7.42047,-8.25861 -4.49932,-2.70007 -4.54762,-2.93449 -0.60746,-2.94835 6.70059,-0.0236 4.52779,-10.18888 -19.84473,-13.15725 -56.84704,-6.9235 -129.36764,-4.72143 -155.94495,-2.08472 -13.17933,1.30749 -14.09113,8.79964 -17.29181,11.36993 -2.1656,1.73908 -18.36139,14.83846 -23.89096,22.30158 -6.10319,8.23734 -8.31918,12.83514 -10.13844,19.0847 -4.61744,15.862 -1.81967,24.70309 2.81608,19.10736 l 5.23682,-8.55635 z"
       style="fill:#803300;fill-opacity:1;stroke:none"
       sodipodi:nodetypes="ssssscsssssssscsssssssccs" />
    <g
       id="g3516"
       clip-path="url(#clipPath3523)"
       transform="matrix(0.45477592,0,0,0.45477592,217.98163,283.98237)">
      <path
         style="fill:#241f1c;fill-opacity:1;stroke:none"
         id="path3506"
         sodipodi:type="arc"
         sodipodi:cx="483.64981"
         sodipodi:cy="527.08289"
         sodipodi:rx="71.720833"
         sodipodi:ry="60.609154"
         sodipodi:start="1.3692614"
         sodipodi:end="7.6496175"
         sodipodi:open="true"
         d="m 498.00642,586.46534 c -38.80863,6.70051 -76.69691,-14.45409 -84.62585,-47.25011 -7.92893,-32.79603 17.10401,-64.81429 55.91264,-71.5148 38.80862,-6.70051 76.6969,14.45409 84.62584,47.25011 7.91307,32.73044 -17.00542,64.70056 -55.71389,71.48024" />
      <rect
         transform="matrix(0.5441995,-0.83895584,0.83895584,0.5441995,0,0)"
         y="361.04987"
         x="-212.16252"
         height="274.76151"
         width="38.385796"
         id="rect3512"
         style="fill:#241f1c;fill-opacity:1;stroke:none" />
      <rect
         style="fill:#241f1c;fill-opacity:1;stroke:none"
         id="rect3514"
         width="38.385796"
         height="274.76151"
         x="-731.51447"
         y="-406.1882"
         transform="matrix(-0.5441995,-0.83895584,-0.83895584,0.5441995,0,0)" />
    </g>
    <path
       style="fill:#2b1100;fill-opacity:1;stroke:none"
       id="path3677"
       sodipodi:type="arc"
       sodipodi:cx="349.04764"
       sodipodi:cy="519.97882"
       sodipodi:rx="8.3572941"
       sodipodi:ry="7.3126326"
       sodipodi:start="1.3692614"
       sodipodi:end="7.6496175"
       sodipodi:open="true"
       d="m 350.72055,527.14345 c -4.52219,0.80843 -8.93714,-1.74392 -9.86106,-5.70083 -0.92392,-3.95692 1.99305,-7.82 6.51524,-8.62843 4.52219,-0.80843 8.93713,1.74392 9.86105,5.70084 0.92208,3.949 -1.98156,7.80627 -6.49207,8.62425" />
    <g
       id="g3021"
       transform="matrix(0.68009453,0,0,0.68009453,122.12247,148.04501)">
      <path
         d="m 412.88475,500.22845 c -73.95391,4.5844 -146.15399,-9.8893 -161.2634,-32.3279 -15.10942,-22.4386 32.59347,-44.34508 106.54737,-48.92948 73.9539,-4.58439 146.15399,9.8893 161.2634,32.3279 15.0792,22.39373 -32.4056,44.26726 -106.16864,48.90583"
         sodipodi:open="true"
         sodipodi:end="7.6496175"
         sodipodi:start="1.3692614"
         sodipodi:ry="41.467979"
         sodipodi:rx="136.67155"
         sodipodi:cy="459.59976"
         sodipodi:cx="385.52673"
         sodipodi:type="arc"
         id="path3675"
         style="fill:#484537;fill-opacity:1;stroke:none" />
      <g
         id="g3831"
         style="fill:#003380">
        <g
           id="g3748"
           transform="matrix(0.69059364,0,0,0.50150494,240.90066,223.21288)"
           clip-path="url(#clipPath3762-3)"
           style="fill:#003380">
          <path
             inkscape:connector-curvature="0"
             d="m 33.572499,458.03817 c -0.679225,3.05941 -2.170916,6.10581 -3.405281,9.11605 -3.54044,7.44816 -6.34696,14.98711 -9.047841,22.53676 -0.456682,1.37059 -0.912442,2.74127 -1.370049,4.11176 -1.054737,3.15886 -1.752147,5.05245 -2.576262,8.2361 -1.223383,4.72607 -1.951008,9.47864 -2.661835,14.23354 -1.380204,10.80283 -1.799501,21.63193 -2.219885,32.45568 -0.22829,5.60925 -0.348235,11.2195 -0.519298,16.82929 0.09867,2.01378 -0.436243,4.00827 -0.758859,6.00807 -0.103449,0.64166 -0.162132,1.28493 -0.217304,1.92822 0,0 7.968647,2.23912 7.968647,2.23912 l 0,0 c 0.03726,-0.64038 0.07666,-1.28083 0.162828,-1.91996 0.286569,-2.03685 0.702939,-4.07649 0.513383,-6.12249 -0.213408,-5.68567 -0.321074,-11.37254 -0.332517,-17.05941 0.07293,-10.83156 0.384473,-21.67342 2.031431,-32.47332 0.831096,-4.71579 1.705009,-9.43173 2.933483,-14.12301 0.853205,-3.25819 1.496032,-4.99196 2.571605,-8.22699 0.455202,-1.36912 0.907486,-2.73854 1.36123,-4.10781 2.692561,-7.5202 5.509744,-15.03213 9.47751,-22.38903 1.420549,-3.00197 2.940197,-6.00124 4.160325,-9.02646 0,0 -8.071316,-2.24611 -8.071316,-2.24611 z"
             id="path3744"
             style="fill:#003380;fill-opacity:1;stroke:none" />
          <path
             style="fill:#003380;fill-opacity:1;stroke:none"
             id="path3746"
             d="m 39.734365,441.0589 c -0.99489,2.97179 -2.796449,5.84583 -4.338313,8.71076 -4.298621,7.03788 -7.876809,14.24266 -11.351052,21.46911 -0.597265,1.31543 -1.193622,2.63104 -1.791796,3.94628 -1.378733,3.03149 -2.270007,4.84193 -3.421965,7.92216 -1.710061,4.57253 -2.929838,9.22318 -4.133152,13.8779 -2.500387,10.59972 -4.047859,21.32588 -5.5958532,32.04661 -0.8126006,5.55477 -1.5175527,11.12185 -2.2732954,16.68313 -0.1120906,2.01308 -0.8522887,3.94083 -1.3819042,5.89602 -0.1698676,0.62736 -0.2953819,1.26099 -0.4174064,1.895 0,0 7.6913632,3.05875 7.6913632,3.05875 l 0,0 c 0.103907,-0.63299 0.209949,-1.26583 0.362366,-1.89247 0.497633,-1.99581 1.124649,-3.98084 1.149714,-6.03545 0.381294,-5.67688 0.867877,-11.34392 1.450157,-17.00091 1.203254,-10.76477 2.644893,-21.51487 5.41027,-32.08383 1.318844,-4.60327 2.680286,-9.20221 4.391777,-13.73962 1.188671,-3.15132 2.008977,-4.80851 3.416383,-7.91359 0.595639,-1.31412 1.188408,-2.62884 1.782613,-3.94326 3.462894,-7.19803 7.048867,-14.37483 11.762952,-21.27733 1.726167,-2.83728 3.55061,-5.66152 5.079879,-8.54284 0,0 -7.792742,-3.07642 -7.792742,-3.07642 z"
             inkscape:connector-curvature="0" />
        </g>
        <g
           id="g3821"
           style="fill:#003380">
          <path
             transform="scale(-1,1)"
             d="m -354.72923,493.60191 c -80.52966,5.09378 -159.14956,-10.98811 -175.60246,-35.91989 -16.45289,-24.93178 35.49159,-49.27231 116.02125,-54.36608 80.52966,-5.09378 159.14956,10.9881 175.60245,35.91989 16.41999,24.88192 -35.287,49.18584 -115.60883,54.33981"
             sodipodi:open="true"
             sodipodi:end="7.6496175"
             sodipodi:start="1.3692614"
             sodipodi:ry="46.075535"
             sodipodi:rx="148.82397"
             sodipodi:cy="448.45892"
             sodipodi:cx="-384.51984"
             sodipodi:type="arc"
             id="path3527"
             style="fill:#003380;fill-opacity:1;stroke:none" />
          <path
             transform="scale(-1,1)"
             style="fill:#003380;fill-opacity:1;stroke:none"
             id="path3529"
             sodipodi:type="arc"
             sodipodi:cx="-397.42099"
             sodipodi:cy="435.55777"
             sodipodi:rx="148.82397"
             sodipodi:ry="46.075535"
             sodipodi:start="1.3692614"
             sodipodi:end="7.6496175"
             sodipodi:open="true"
             d="m -367.63039,480.70076 c -80.52966,5.09377 -159.14955,-10.98811 -175.60245,-35.91989 -16.4529,-24.93179 35.49158,-49.27231 116.02125,-54.36609 80.52966,-5.09377 159.14955,10.98811 175.60245,35.91989 16.41999,24.88192 -35.28701,49.18585 -115.60883,54.33981" />
          <path
             transform="scale(-1,1)"
             d="m -380.53151,467.7996 c -80.52966,5.09378 -159.14956,-10.9881 -175.60245,-35.91989 -16.4529,-24.93178 35.49158,-49.27231 116.02124,-54.36608 80.52966,-5.09378 159.14956,10.9881 175.60246,35.91989 16.41999,24.88192 -35.28701,49.18585 -115.60884,54.33981"
             sodipodi:open="true"
             sodipodi:end="7.6496175"
             sodipodi:start="1.3692614"
             sodipodi:ry="46.075535"
             sodipodi:rx="148.82397"
             sodipodi:cy="422.65662"
             sodipodi:cx="-410.32211"
             sodipodi:type="arc"
             id="path3531"
             style="fill:#003380;fill-opacity:1;stroke:none" />
          <path
             transform="scale(-1,1)"
             style="fill:#003380;fill-opacity:1;stroke:none"
             id="path3533"
             sodipodi:type="arc"
             sodipodi:cx="-423.22327"
             sodipodi:cy="409.75546"
             sodipodi:rx="148.82397"
             sodipodi:ry="46.075535"
             sodipodi:start="1.3692614"
             sodipodi:end="7.6496175"
             sodipodi:open="true"
             d="m -393.43266,454.89845 c -80.52966,5.09378 -159.14956,-10.98811 -175.60246,-35.91989 -16.45289,-24.93178 35.49159,-49.27231 116.02125,-54.36609 80.52966,-5.09377 159.14956,10.98811 175.60245,35.91989 16.41999,24.88193 -35.287,49.18585 -115.60883,54.33982" />
          <path
             transform="scale(-1,1)"
             style="fill:#003380;fill-opacity:1;stroke:none"
             id="path3535"
             sodipodi:type="arc"
             sodipodi:cx="-384.51984"
             sodipodi:cy="448.45892"
             sodipodi:rx="148.82397"
             sodipodi:ry="46.075535"
             sodipodi:start="1.3692614"
             sodipodi:end="7.6496175"
             sodipodi:open="true"
             d="m -354.72923,493.60191 c -80.52966,5.09378 -159.14956,-10.98811 -175.60246,-35.91989 -16.45289,-24.93178 35.49159,-49.27231 116.02125,-54.36608 80.52966,-5.09378 159.14956,10.9881 175.60245,35.91989 16.41999,24.88192 -35.287,49.18584 -115.60883,54.33981" />
          <path
             transform="scale(-1,1)"
             d="m -367.63039,480.70076 c -80.52966,5.09377 -159.14955,-10.98811 -175.60245,-35.91989 -16.4529,-24.93179 35.49158,-49.27231 116.02125,-54.36609 80.52966,-5.09377 159.14955,10.98811 175.60245,35.91989 16.41999,24.88192 -35.28701,49.18585 -115.60883,54.33981"
             sodipodi:open="true"
             sodipodi:end="7.6496175"
             sodipodi:start="1.3692614"
             sodipodi:ry="46.075535"
             sodipodi:rx="148.82397"
             sodipodi:cy="435.55777"
             sodipodi:cx="-397.42099"
             sodipodi:type="arc"
             id="path3537"
             style="fill:#003380;fill-opacity:1;stroke:none" />
          <path
             transform="scale(-1,1)"
             style="fill:#003380;fill-opacity:1;stroke:none"
             id="path3539"
             sodipodi:type="arc"
             sodipodi:cx="-410.32211"
             sodipodi:cy="422.65662"
             sodipodi:rx="148.82397"
             sodipodi:ry="46.075535"
             sodipodi:start="1.3692614"
             sodipodi:end="7.6496175"
             sodipodi:open="true"
             d="m -380.53151,467.7996 c -80.52966,5.09378 -159.14956,-10.9881 -175.60245,-35.91989 -16.4529,-24.93178 35.49158,-49.27231 116.02124,-54.36608 80.52966,-5.09378 159.14956,10.9881 175.60246,35.91989 16.41999,24.88192 -35.28701,49.18585 -115.60884,54.33981" />
          <path
             transform="scale(-1,1)"
             d="m -323.39787,477.01472 c -80.52966,5.09378 -159.14956,-10.9881 -175.60246,-35.91989 -16.45289,-24.93178 35.49159,-49.27231 116.02125,-54.36608 80.52966,-5.09378 159.14956,10.9881 175.60245,35.91989 16.41999,24.88192 -35.287,49.18584 -115.60883,54.33981"
             sodipodi:open="true"
             sodipodi:end="7.6496175"
             sodipodi:start="1.3692614"
             sodipodi:ry="46.075535"
             sodipodi:rx="148.82397"
             sodipodi:cy="431.87173"
             sodipodi:cx="-353.18848"
             sodipodi:type="arc"
             id="path3541"
             style="fill:#003380;fill-opacity:1;stroke:none" />
        </g>
      </g>
      <g
         transform="matrix(1.4703838,0,0,1.4703838,-170.73318,-173.32848)"
         id="g3884">
        <rect
           style="fill:#e2dbe3;fill-opacity:1;stroke:none"
           id="rect3708"
           width="39.625683"
           height="3.5384738"
           x="510.3999"
           y="-220.77571"
           transform="matrix(0.90572697,0.4238616,0.44407239,-0.89599091,0,0)" />
        <path
           inkscape:connector-curvature="0"
           style="fill:#e2dbe3;fill-opacity:1;stroke:none"
           d="m 400.2673,439.39839 a 9.9588434,9.6771436 0 0 1 -0.58681,-12.40632 9.9588434,9.6771436 0 0 1 13.95142,-1.83706 l 0.0226,0.0167 a 9.9588434,9.6771436 0 0 1 2.07308,2.10823 11.670692,11.28717 4.6264162 0 0 -13.21144,3.74663 11.670692,11.28717 4.6264162 0 0 -2.24891,8.3719 z"
           id="path3710" />
        <path
           style="fill:#e2dbe3;fill-opacity:1;stroke:none"
           d="m 354.13188,418.54521 a 12.007929,13.928028 30.102388 0 0 7.75532,-5.48564 12.007929,13.928028 30.102388 0 0 3.06693,-10.30097 9.9588434,9.6771436 0 0 1 0.90657,12.7362 9.9588434,9.6771436 0 0 1 -11.72882,3.05041 z"
           id="path3712"
           inkscape:connector-curvature="0" />
        <rect
           y="-547.17175"
           x="-179.56085"
           height="3.5384738"
           width="39.625683"
           id="rect3714"
           style="fill:#e2dbe3;fill-opacity:1;stroke:none"
           transform="matrix(-0.90572697,0.4238616,-0.44407239,-0.89599091,0,0)" />
        <path
           id="path3716"
           d="m 369.59222,439.39839 a 9.9588434,9.6771436 0 0 0 0.5868,-12.40632 9.9588434,9.6771436 0 0 0 -13.95141,-1.83706 l -0.0227,0.0167 a 9.9588434,9.6771436 0 0 0 -2.07307,2.10823 11.28717,11.670692 85.373586 0 1 13.21144,3.74663 11.28717,11.670692 85.373586 0 1 2.24892,8.3719 z"
           style="fill:#e2dbe3;fill-opacity:1;stroke:none"
           inkscape:connector-curvature="0" />
        <path
           inkscape:connector-curvature="0"
           id="path3718"
           d="m 415.72764,418.54521 a 13.928028,12.007929 59.897612 0 1 -7.75532,-5.48564 13.928028,12.007929 59.897612 0 1 -3.06693,-10.30097 9.9588434,9.6771436 0 0 0 -0.90656,12.7362 9.9588434,9.6771436 0 0 0 11.72881,3.05041 z"
           style="fill:#e2dbe3;fill-opacity:1;stroke:none" />
        <path
           inkscape:connector-curvature="0"
           id="path3720"
           d="m 384.81422,381.87993 a 18.824433,15.843629 0 0 0 -3.73978,0.32389 18.824433,15.843629 0 0 0 -14.64497,18.70085 18.824433,15.843629 0 0 0 22.20795,12.3407 l 0.0533,-0.007 a 18.824433,15.843629 0 0 0 4.45685,-1.29966 8.763098,3.9609075 0 0 1 -0.33368,0.037 l -0.0231,0.001 a 8.763098,3.9609075 0 0 1 -10.33899,-3.08414 8.763098,3.9609075 0 0 1 6.81752,-4.67469 8.763098,3.9609075 0 0 1 10.34963,3.07793 8.763098,3.9609075 0 0 1 0.0603,0.1795 18.824433,15.843629 0 0 0 3.6262,-12.95754 18.824433,15.843629 0 0 0 -18.49125,-12.63776 z"
           style="fill:#e2dbe3;fill-opacity:1;stroke:none" />
        <path
           d="m 378.31473,404.85054 c -4.21491,0.78963 -8.32986,-1.70335 -9.191,-5.56823 -0.86115,-3.86487 1.85762,-7.63808 6.07253,-8.42771 4.21491,-0.78963 8.32986,1.70335 9.191,5.56822 0.85942,3.85715 -1.84692,7.62469 -6.05095,8.42365"
           sodipodi:open="true"
           sodipodi:end="7.6496175"
           sodipodi:start="1.3692614"
           sodipodi:ry="7.1425309"
           sodipodi:rx="7.7894206"
           sodipodi:cy="397.85257"
           sodipodi:cx="376.75549"
           sodipodi:type="arc"
           id="path3722"
           style="fill:#241c1f;fill-opacity:1;stroke:none" />
        <path
           style="fill:#241c1f;fill-opacity:1;stroke:none"
           id="path3724"
           sodipodi:type="arc"
           sodipodi:cx="393.47034"
           sodipodi:cy="394.99551"
           sodipodi:rx="7.62714"
           sodipodi:ry="8.1814451"
           sodipodi:start="1.3692614"
           sodipodi:end="7.6496175"
           sodipodi:open="true"
           d="m 394.99709,403.01137 c -4.1271,0.90448 -8.15632,-1.95111 -8.99952,-6.37815 -0.8432,-4.42703 1.81892,-8.74908 5.94602,-9.65356 4.12709,-0.90448 8.15632,1.95111 8.99952,6.37815 0.84151,4.41818 -1.80844,8.73373 -5.92489,9.6489" />
      </g>
    </g>
  </g>
</svg>
