<?xml version="1.0" encoding="UTF-8" standalone="no"?>
<!-- Created with Inkscape (http://www.inkscape.org/) -->

<svg
   xmlns:dc="http://purl.org/dc/elements/1.1/"
   xmlns:cc="http://creativecommons.org/ns#"
   xmlns:rdf="http://www.w3.org/1999/02/22-rdf-syntax-ns#"
   xmlns:svg="http://www.w3.org/2000/svg"
   xmlns="http://www.w3.org/2000/svg"
   xmlns:sodipodi="http://sodipodi.sourceforge.net/DTD/sodipodi-0.dtd"
   xmlns:inkscape="http://www.inkscape.org/namespaces/inkscape"
   width="300"
   height="300"
   viewBox="0 0 300 300"
   id="svg3494"
   version="1.1"
   inkscape:version="0.48.5 r10040"
   sodipodi:docname="pirate.svg">
  <defs
     id="defs3496">
    <clipPath
       clipPathUnits="userSpaceOnUse"
       id="clipPath3523">
      <path
         d="m 401.18473,691.63404 a 241.42857,177.14285 0 1 1 0.66903,-0.10101"
         sodipodi:open="true"
         sodipodi:end="7.6496175"
         sodipodi:start="1.3692614"
         sodipodi:ry="177.14285"
         sodipodi:rx="241.42857"
         sodipodi:cy="518.07648"
         sodipodi:cx="352.85715"
         sodipodi:type="arc"
         id="path3525"
         style="fill:#ac9d93;fill-opacity:1;stroke:none" />
    </clipPath>
    <clipPath
       clipPathUnits="userSpaceOnUse"
       id="clipPath3762">
      <rect
         style="fill:#ff0000;fill-opacity:1;stroke:none"
         id="rect3764"
         width="148"
         height="100.5"
         x="-48"
         y="485.86218" />
    </clipPath>
    <clipPath
       clipPathUnits="userSpaceOnUse"
       id="clipPath3762-3">
      <rect
         style="fill:#ff0000;fill-opacity:1;stroke:none"
         id="rect3764-6"
         width="148"
         height="100.5"
         x="-48"
         y="485.86218" />
    </clipPath>
  </defs>
  <sodipodi:namedview
     id="base"
     pagecolor="#ffffff"
     bordercolor="#666666"
     borderopacity="1.0"
     inkscape:pageopacity="0.0"
     inkscape:pageshadow="2"
     inkscape:zoom="2.5517087"
     inkscape:cx="102.00665"
     inkscape:cy="87.696971"
     inkscape:document-units="px"
     inkscape:current-layer="layer1"
     showgrid="false"
     inkscape:window-width="1279"
     inkscape:window-height="1373"
     inkscape:window-x="1246"
     inkscape:window-y="63"
     inkscape:window-maximized="0"
     units="px"
     fit-margin-top="0"
     fit-margin-left="0"
     fit-margin-right="0"
     fit-margin-bottom="0"
     inkscape:showpageshadow="false"
     inkscape:snap-page="true"
     inkscape:snap-nodes="false"
     inkscape:snap-bbox="true" />
  <metadata
     id="metadata3499">
    <rdf:RDF>
      <cc:Work
         rdf:about="">
        <dc:format>image/svg+xml</dc:format>
        <dc:type
           rdf:resource="http://purl.org/dc/dcmitype/StillImage" />
        <dc:title></dc:title>
        <cc:license
           rdf:resource="http://creativecommons.org/publicdomain/zero/1.0/" />
      </cc:Work>
      <cc:License
         rdf:about="http://creativecommons.org/publicdomain/zero/1.0/">
        <cc:permits
           rdf:resource="http://creativecommons.org/ns#Reproduction" />
        <cc:permits
           rdf:resource="http://creativecommons.org/ns#Distribution" />
        <cc:permits
           rdf:resource="http://creativecommons.org/ns#DerivativeWorks" />
      </cc:License>
    </rdf:RDF>
  </metadata>
  <g
     inkscape:label="Camada 1"
     inkscape:groupmode="layer"
     id="layer1"
     transform="translate(-234.80833,-321.82378)">
    <path
       id="path15012"
       style="opacity:0.8;color:#000000;fill:#000000"
       inkscape:connector-curvature="0"
       d="m 379.45832,413.9909 c -41.41158,0 -74.98854,33.57928 -74.98854,74.99085 0,20.70463 8.3698,39.46165 21.94951,53.03903 6.78753,6.78985 11.16905,49.53241 20.14385,53.33221 8.9748,3.79049 56.87373,3.79049 65.84853,0 8.9748,-3.7998 13.29815,-46.54236 20.08567,-53.33221 13.57971,-13.57738 22.00769,-32.3344 22.00769,-53.03903 0,-41.41157 -33.63513,-74.99085 -75.04671,-74.99085 z m -122.32437,39.82464 c -8.90732,0.21407 -17.26131,5.62641 -20.72697,14.43832 -4.62096,11.74844 1.17601,25.07219 12.92515,29.69338 5.70692,2.24312 11.79661,1.92434 17.06003,-0.23269 l 31.78758,12.45815 c -1.77309,-6.82476 -3.02728,-13.82636 -3.02728,-21.19095 0,-5.0284 0.60499,-9.88461 1.45663,-14.67334 l -18.22416,-7.15982 c -2.38273,-5.16568 -6.57811,-9.51696 -12.28596,-11.7624 -2.93653,-1.15414 -5.99638,-1.64278 -8.96502,-1.57065 z m 244.64873,0 c -2.97841,-0.0768 -6.02663,0.41651 -8.98177,1.57065 -5.70087,2.24544 -9.88927,6.54087 -12.28596,11.70422 l -18.21253,7.15983 c 0.85862,4.80735 1.5148,9.68217 1.5148,14.73151 0,7.3739 -1.29142,14.41971 -3.08545,21.24912 l 31.83645,-12.51632 c 5.28203,2.15703 11.30866,2.41764 17.00953,0.17452 11.75077,-4.6212 17.54472,-17.8286 12.93748,-29.57704 -3.46706,-8.81191 -11.82058,-14.26613 -20.73255,-14.49649 z m -152.95316,17.05839 c 11.76008,0 21.30962,9.54954 21.30962,21.30962 0,11.76008 -9.54954,21.30961 -21.30962,21.30961 -11.76007,0 -21.30962,-9.54953 -21.30962,-21.30961 0,-11.76008 9.54955,-21.30962 21.30962,-21.30962 z m 61.24828,0 c 11.76008,0 21.30962,9.54954 21.30962,21.30962 0,11.76008 -9.54954,21.30961 -21.30962,21.30961 -11.76008,0 -21.30961,-9.54953 -21.30961,-21.30961 0,-11.76008 9.54953,-21.30962 21.30961,-21.30962 z m -101.36844,63.81018 -42.32604,16.65119 c -5.26342,-2.1547 -11.35311,-2.41763 -17.06003,-0.17452 -11.74914,4.6212 -17.54611,17.88677 -12.92515,29.63522 4.62096,11.75077 17.94401,17.48654 29.69106,12.86767 5.70785,-2.24544 9.90322,-6.53854 12.28595,-11.7019 l 46.05372,-18.10783 c -0.7353,-2.89697 -1.51015,-6.15461 -2.21287,-8.50011 -1.38682,-4.62585 -3.84867,-8.15806 -2.44556,-6.75495 -4.1977,-4.19537 -7.82764,-8.90499 -11.06201,-13.91477 z m 141.47929,0 c -3.25066,5.01676 -6.92015,9.71475 -11.12018,13.91477 1.40776,-1.40776 -1.06339,2.1291 -2.44556,6.75495 -0.69574,2.32921 -1.48222,5.56591 -2.21287,8.44194 l 46.10026,18.166 c 2.39669,5.16336 6.58508,9.45879 12.28595,11.7019 11.75077,4.61887 25.08383,-1.1169 29.71433,-12.86767 4.60723,-11.74845 -1.18671,-25.01402 -12.93748,-29.63522 -5.70087,-2.24311 -11.72751,-1.98018 -17.00954,0.17452 L 450.184,534.68411 z" />
  </g>
</svg>
